<svg width="30" height="30" viewBox="0 0 30 30" fill="none" xmlns="http://www.w3.org/2000/svg">
<path fill-rule="evenodd" clip-rule="evenodd" d="M15 30C23.2843 30 30 23.2843 30 15C30 6.71573 23.2843 0 15 0C6.71573 0 0 6.71573 0 15C0 23.2843 6.71573 30 15 30ZM16.5161 8.70946H22.2581V6.70946H7.74194V8.70946H14.5161V10.6285C10.7154 10.8775 7.70968 14.0393 7.70968 17.903H9.70968C9.70968 15.1444 11.8211 12.8789 14.5161 12.6345V25.1611H16.5161V12.8331C18.699 13.485 20.2903 15.5082 20.2903 17.903H22.2903C22.2903 14.3966 19.8148 11.4683 16.5161 10.7705V8.70946Z" fill="#FB7299"/>
</svg>
