<?xml version="1.0" standalone="no"?><!DOCTYPE svg PUBLIC "-//W3C//DTD SVG 1.1//EN" "http://www.w3.org/Graphics/SVG/1.1/DTD/svg11.dtd">
<svg xmlns:xlink="http://www.w3.org/1999/xlink" t="1621915800508" class="icon" viewBox="0 0 1024 1024"
version="1.1" xmlns="http://www.w3.org/2000/svg" p-id="705"
width="200" height="200">
<defs><style type="text/css"></style></defs>
<path d="M512.667 0C230.39 0 1.534 228.998 1.534 511.475c0 282.476 228.855 511.446 511.133 511.446s511.134-228.97 511.134-511.446C1023.801 229.026 794.945 0 512.667 0z m-1.107 968.334c-251.15 0-454.758-203.75-454.758-455.042 0-251.35 203.607-455.07 454.758-455.07 251.179 0 454.786 203.75 454.786 455.07 0.028 251.293-203.579 455.042-454.786 455.042zM788.47 515.45c-3.607-11.844-10.991-23.573-22.096-35.218-11.105-11.616-27.293-22.21-48.623-31.78-21.3-9.572-49.872-15.962-85.686-19.143-25.845-2.3-67.196-2.3-92.587 0v-33.513c34.905-2.726 86.822-6.05 124.198-9.912 37.404-3.89 76.058-9.003 115.961-15.393-2.272-4.118-4.317-8.663-6.134-13.661a599.744 599.744 0 0 1-5.766-13.661 1858.171 1858.171 0 0 0-6.504-15.763c-4.97-12.297-10.877-26.64-17.665-43.084-42.147 12.326-83.755 22.806-124.794 31.44-41.04 8.69-82.534 15.734-124.454 21.216a1672.856 1672.856 0 0 1-127.52 11.616c-43.085 2.272-91.338-4.999-137.575-4.999l15.848 62.425c24.936 0 55.098-2.527 90.457-2.754s75.036-1.477 119-3.778v50.98c-26.753 5.908-51.008 12.44-72.791 19.483-21.756 7.072-56.263 13.122-69.867 18.149v-31.27h-84.465v227.833h84.522V541.608c18.574-7.753 55.467-15.166 76.995-22.21a1845.227 1845.227 0 0 1 65.635-20.193V768.42h84.919V486.964c9.969-1.817 35.104-3.18 43.936-4.118 8.862-0.909 17.58-1.817 26.186-2.755 24.056-1.363 42.517 1.364 55.44 8.208s21.67 14.144 26.185 21.898c2.272 3.663 3.749 8.321 4.402 14.03 0.682 5.68 1.022 10.338 1.022 14.001 0 2.755 0.455-2.499 1.364 10.708 0.909 13.234 0.227 32.831-2.017 58.818-0.909 9.571-2.868 17.438-5.794 23.573-2.953 6.163-6.56 10.736-10.877 13.69-4.317 2.953-8.947 4.884-13.945 5.793-4.97 0.909-10.168 0.909-15.65 0-12.24-1.818-26.298-6.816-42.146-15.024l-4.09 41.721c7.27 4.118 15.876 8.208 25.845 12.326 8.605 3.636 18.915 7.3 30.957 10.935 11.985 3.663 25.476 6.617 40.443 8.89 17.211 2.726 31.61 2.044 43.198-2.046s20.847-10.366 27.89-18.801c7.015-8.435 12.354-18.575 15.99-30.446 3.635-11.843 6.134-24.17 7.498-36.922s1.789-25.447 1.363-37.972c-0.483-12.525-0.909-23.8-1.363-33.825-0.938-7.754-3.21-22.324-6.845-34.195z" p-id="706" fill="#1296db"></path></svg>
