<svg width="30" height="30" viewBox="0 0 30 30" fill="none" xmlns="http://www.w3.org/2000/svg">
<path d="M29.2899 11.7502C28.2791 10.5255 26.6279 10.5255 26.0844 10.5255H21.7295C22.0826 8.6212 22.3837 6.40639 21.7364 4.07084C21.2933 2.4632 20.4798 1.3213 19.2439 0.583027C18.5966 0.196642 17.925 0 17.243 0C15.4498 0 14.1067 1.32475 13.9059 3.30152C13.8297 4.03979 13.7605 4.74011 13.5839 5.34039C12.9262 7.54485 11.32 9.22838 9.83486 10.5773C9.28098 11.0741 8.68902 11.9641 8.68209 12.9646C8.66132 15.6417 8.65786 18.3291 8.65786 21.0752L8.6544 25.9533C8.64747 27.5851 9.51984 28.8995 10.9738 29.4618C11.7423 29.7723 12.5558 29.9448 13.4005 29.9689C14.7436 29.9862 16.0937 29.9862 17.3573 29.9862H19.327C20.6148 29.9862 21.9026 29.9862 23.1973 30H23.2388C24.7447 30 25.9286 29.2514 26.4894 27.9473L26.6555 27.5644C27.0467 26.6674 27.4483 25.7394 27.6975 24.7079C28.4591 21.572 29.2519 18.2153 29.8923 14.9172C30.1485 13.6097 29.9477 12.5437 29.2899 11.7502ZM3.93948 10.6221H3.52753C1.58202 10.6221 0 12.1987 0 14.1375V26.1569C0 28.0957 1.58202 29.6723 3.52753 29.6723H3.93948C5.88499 29.6723 7.46701 28.0957 7.46701 26.1569V14.1375C7.47048 12.1987 5.88499 10.6221 3.93948 10.6221Z" fill="#FB7299"/>
</svg>
