<svg width="30" height="30" viewBox="0 0 30 30" fill="none" xmlns="http://www.w3.org/2000/svg">
<path d="M17.102 2.30054L19.6317 7.64298C19.9738 8.36308 20.6318 8.86372 21.3949 8.98031L27.053 9.83757C28.9741 10.129 29.7439 12.5911 28.3524 14.0038L24.2569 18.1633C23.7042 18.7256 23.4509 19.5315 23.5825 20.327L24.5496 26.2009C24.8786 28.1966 22.8687 29.7191 21.1482 28.7761L16.0888 26.0021C15.7525 25.8179 15.3783 25.7217 14.9984 25.7217C14.6184 25.7217 14.2442 25.8179 13.9079 26.0021L8.84849 28.7727C7.12804 29.7157 5.1214 28.1932 5.44707 26.1975L6.4142 20.3236C6.54579 19.5315 6.29249 18.7222 5.73984 18.1598L1.64761 14.0038C0.256116 12.5911 1.02588 10.129 2.94699 9.83757L8.60506 8.98031C9.36824 8.86372 10.0294 8.36651 10.3683 7.64298L12.898 2.30054C13.7598 0.483153 16.2402 0.483153 17.102 2.30054Z" fill="#FB7299"/>
</svg>
