<?xml version="1.0" standalone="no"?><!DOCTYPE svg PUBLIC "-//W3C//DTD SVG 1.1//EN" "http://www.w3.org/Graphics/SVG/1.1/DTD/svg11.dtd"><svg class="icon" width="200px" height="200.00px" viewBox="0 0 1024 1024" version="1.1" xmlns="http://www.w3.org/2000/svg"><path d="M92.327869 0h469.831344L931.672131 235.603934V1024H92.327869z" fill="#F3F3F3" /><path d="M92.327869 0h490.395279L931.672131 218.514885V369.311475H92.327869z" fill="#3C792C" /><path d="M931.672131 218.514885l-236.023606 106.697443L582.723148 0z" fill="#306924" /><path d="M582.723148 0l131.307016 288.449049L931.672131 218.514885z" fill="#599648" /><path d="M194.006033 251.803279v-58.351213h66.845377V251.803279h21.604721V119.959082h-21.604721v55.02741H194.006033V119.959082H172.401311V251.803279h21.604722z m168.96 0V138.424656h43.209442v-18.465574h-108.023606v18.465574h43.209442V251.803279h21.604722z m80.509901 0V160.952656h0.738623L482.992262 251.803279h18.65023l38.777705-90.850623h0.738623V251.803279h21.604721V119.959082h-25.297836l-44.686689 103.407213h-0.738623l-44.871344-103.407213h-25.297836V251.803279h21.604721z" fill="#FFFFFF" /><path d="M218.229508 709.41377l160.684066-160.700852 19.405639 19.405639-141.295213 141.278427 141.295213 141.295213-19.405639 19.388852zM799.005377 709.41377l-160.684066-160.700852-19.388852 19.405639 141.278426 141.278427-141.278426 141.295213 19.388852 19.388852zM584.720787 537.180328l23.803803 11.53259-173.509246 327.612852-19.137049-10.743606z" fill="#CCD4C6" /></svg>