<?xml version="1.0" encoding="UTF-8"?>
<svg xmlns:xlink="http://www.w3.org/1999/xlink" width="135px" height="74px" viewBox="0 0 135 74" version="1.1" xmlns="http://www.w3.org/2000/svg">
    <title>css</title>
    <g id="é¡µé¢-1" stroke="none" stroke-width="1" fill="none" fill-rule="evenodd">
        <g id="css" fill="#333333" fill-rule="nonzero">
            <path d="M121.2515,0 C123.128831,0 124.909508,0.394432216 126.593531,1.18329665 C128.277553,1.97216108 129.74075,3.04923541 130.983121,4.41451963 C132.225492,5.77980386 133.205548,7.38784597 133.92329,9.23864597 C134.641031,11.089446 135,13.0767457 135,15.2005453 L135,58.7994549 C135,60.9232542 134.641097,62.8953793 133.92329,64.7158302 C133.205483,66.5362811 132.225426,68.1443232 130.983121,69.5399565 C129.740815,70.9355899 128.277619,72.0278388 126.593531,72.8167034 C124.909442,73.6055679 123.128765,74 121.2515,74 L13.8313469,74 C11.8988501,74 10.1043653,73.6055678 8.44789266,72.8167034 C6.79142001,72.0278389 5.32822324,70.93559 4.05830233,69.5399565 C2.78838142,68.1443231 1.79451747,66.536281 1.07671048,64.7158302 C0.358903495,62.8953794 0,60.9232543 0,58.7994549 L0,15.2005453 C0,13.0767459 0.358903495,11.0894461 1.07671048,9.23864597 C1.79451747,7.38784582 2.78838142,5.7798037 4.05830233,4.41451963 C5.32822324,3.04923557 6.79142001,1.97216124 8.44789266,1.18329665 C10.1043653,0.39443206 11.8988501,0 13.8313469,0 L121.2515,0 Z M53.3055958,16.2933939 L45.4317675,16.2933939 L45.4317675,37.5603488 C45.4317675,42.0852329 45.6067415,46.2481262 44.9068457,47.5150937 C43.6820279,50.0490288 40.7074706,49.6870381 39.3076789,49.3250473 C37.8204002,48.6010659 37.1205043,47.6960891 36.2456345,46.2481262 C36.0706606,45.7051401 35.8956866,45.3431494 35.8956866,45.3431494 L29.42165,49.5060427 C30.4714938,51.8589824 32.0462594,53.8499314 34.145947,55.1168989 C37.1205043,56.9268525 41.1449055,57.650834 45.5192545,56.5648618 C48.3188379,55.659885 50.5934994,54.0309267 51.9932911,51.4969917 C53.7430307,48.0580798 53.3930828,43.8951865 53.3930828,39.1893071 L53.3930828,16.4743892 C53.3055958,16.4743892 53.3055958,16.2933939 53.3055958,16.2933939 Z M86.9094686,33.6776214 C84.880519,33.1921774 83.3008362,32.7370827 82.1704204,32.3123373 C81.0400046,31.8875919 80.1849271,31.4476717 79.605188,30.992577 C79.0254489,30.5374822 78.6631291,30.0520382 78.5182286,29.5362451 C78.3733281,29.0204519 78.3008779,28.3984723 78.300878,27.6703063 C78.300878,26.0319509 78.9240736,24.7879917 80.1704647,23.9384288 C81.4168558,23.0888658 83.5762433,22.6641203 86.6486272,22.6641923 C88.0979064,22.6641923 89.2138253,22.7703787 89.9963839,22.9827514 C90.7789425,23.1951242 91.3876411,23.5440326 91.8224797,24.0294765 C92.2573184,24.5149205 92.6051413,25.1217254 92.8659485,25.8498914 C93.1267557,26.5780574 93.4890754,27.4579336 93.9529078,28.48952 L99.692037,28.0343892 C99.692037,27.8523657 99.6050899,27.1241998 99.4311956,25.8498914 C99.2573014,24.5755831 98.7355499,23.2406121 97.8659411,21.8449786 C96.9963324,20.4493451 95.6629942,19.1750367 93.8659264,18.0220534 C92.0688586,16.8690701 89.5761108,16.2926863 86.3876828,16.2926863 C83.0833482,16.2926863 80.4601968,16.7174677 78.5182286,17.5670307 C76.5762604,18.4165936 75.1269812,19.4330054 74.170391,20.616266 C73.2138009,21.7995267 72.6051023,22.997962 72.3442951,24.2115719 C72.0834879,25.4251818 71.95305,26.3960698 71.9529815,27.1242357 C71.9529815,29.3087336 72.5326863,31.1898469 73.6920959,32.7675758 C74.8515055,34.3453047 76.1848094,35.6347518 77.6920076,36.6359171 C79.1992057,37.6370824 80.6774444,38.3955975 82.1267236,38.9114626 C83.5760027,39.4273277 84.6194714,39.776236 85.2571295,39.9581877 C87.4020546,40.5650286 89.039725,41.1263097 90.1701408,41.642031 C91.3005566,42.1577523 92.0976464,42.6431963 92.5614102,43.0983629 C93.0251741,43.5535296 93.2715529,43.9934497 93.3005467,44.4181232 C93.3295405,44.8427968 93.3440374,45.2675783 93.3440375,45.6924676 C93.3440375,46.4206336 93.2860842,47.0729624 93.1701775,47.6494541 C93.0542709,48.2259458 92.7644013,48.7265644 92.3005687,49.1513098 C91.8367362,49.5760553 91.1700843,49.8946144 90.3006129,50.1069872 C89.4311415,50.3193599 88.271732,50.4255463 86.8223841,50.4255463 C84.4455773,50.4255463 82.6485095,50.1069872 81.4311809,49.469869 C80.2138523,48.8327508 79.3442779,48.1197594 78.8224577,47.3308949 C78.3006375,46.5420304 78.0252648,45.7835152 77.9963397,45.0553494 C77.9674145,44.3271835 77.9529176,43.8720888 77.952849,43.6900651 L71.692037,43.6900651 C71.692037,43.9934855 71.7934811,44.8581871 71.9963692,46.2841699 C72.1992573,47.7101526 72.807956,49.227183 73.8224651,50.8352611 C74.8369742,52.4433391 76.4166569,53.8844964 78.5615133,55.1587329 C80.7063696,56.4329694 83.7788223,57.0701955 87.7788712,57.0701955 C88.8802932,57.0701955 90.1266499,56.9033106 91.5179415,56.5695409 C92.9092331,56.2357712 94.1845837,55.6289663 95.3439933,54.7491261 C96.5034029,53.869286 97.4889183,52.6708506 98.3005393,51.1538201 C99.1121604,49.6367896 99.5179709,47.6646645 99.517971,45.2374448 C99.517971,44.6306038 99.5034741,43.8417394 99.4744803,42.8708515 C99.4454865,41.8999635 99.0686698,40.8683771 98.3440301,39.7760923 C97.6193905,38.6838074 96.3875307,37.6067331 94.6484506,36.5448693 C92.9093705,35.4830055 90.3296755,34.5272922 86.9093655,33.6777293 L86.9094686,33.6776214 Z" id="å½¢çŠ¶"></path>
        </g>
    </g>
</svg>
