<?xml version="1.0" encoding="UTF-8"?>
<svg xmlns:xlink="http://www.w3.org/1999/xlink" width="178px" height="179px" viewBox="0 0 178 179" version="1.1" xmlns="http://www.w3.org/2000/svg">
    <title>tou_bi</title>
    <g id="页面-1" stroke="none" stroke-width="1" fill="none" fill-rule="evenodd">
        <g id="tou_bi" transform="translate(0.094141, 0.371484)" fill="#1296DB" fill-rule="nonzero">
            <path d="M88.8199219,0 C137.87832,0 177.645312,39.7949219 177.645312,88.8808594 C177.650781,137.961523 137.883789,177.75625 88.8199219,177.75625 C39.7671875,177.75625 0,137.961328 0,88.8808594 C0,39.7890625 39.7669922,0 88.8199219,0 Z M134.133984,44.1601563 C125.902148,46.5675781 117.775586,48.6144531 109.760156,50.3007813 C101.744531,51.9980469 93.6402344,53.3738281 85.4527344,54.4445313 C77.1826474,55.5183601 68.8744793,56.2751643 60.5464844,56.7132813 C52.1314453,57.1570313 42.7070312,55.7369141 33.6763672,55.7369141 L36.7716797,67.9292969 C41.6419922,67.9292969 47.5330078,67.4357422 54.4390625,67.3914063 C61.3451172,67.3470703 69.0945312,67.1029297 77.68125,66.6535156 L77.68125,76.6105469 C72.4560547,77.7644531 67.71875,79.0402344 63.4642578,80.4158203 C59.2150391,81.7970703 52.4753906,82.9787109 49.8183594,83.9605469 L49.8183594,77.853125 L33.3212891,77.853125 L33.3212891,122.351758 L49.8294922,122.351758 L49.8294922,94.4113281 C53.4572266,92.8970703 60.6628906,91.4492188 64.8675781,90.0734375 C69.1158554,88.679383 73.3897073,87.3645069 77.6869141,86.1294922 L77.6869141,138.710547 L94.2726562,138.710547 L94.2726562,83.7386719 C96.2197266,83.3837891 101.128906,83.1175781 102.853906,82.934375 C104.584766,82.7568359 106.2875,82.5794922 107.968359,82.3962891 C112.666797,82.1300781 116.272461,82.6626953 118.796484,83.9994141 C121.320508,85.3361328 123.028906,86.7619141 123.910742,88.2763672 C124.354492,88.9917969 124.642969,89.9015625 124.770508,91.0166016 C124.903711,92.1259766 124.970117,93.0357422 124.970117,93.7511719 C124.970117,93.8979226 124.976727,93.9283235 124.989943,93.9472492 L124.999732,93.9593171 C125.039214,94.0057726 125.118164,94.1229167 125.236523,95.8425781 C125.414062,98.4273438 125.280859,102.254883 124.842578,107.330469 C124.665039,109.199805 124.282422,110.736328 123.710938,111.93457 C123.13418,113.138281 122.429688,114.031445 121.586523,114.608398 C120.743359,115.185156 119.839062,115.562305 118.862891,115.739844 C117.892187,115.917383 116.876953,115.917383 115.80625,115.739844 C113.415625,115.384766 110.669922,114.408594 107.574609,112.805469 L106.775781,120.954102 C108.195703,121.758398 109.876562,122.557227 111.823633,123.361523 C113.504297,124.07168 115.517969,124.787305 117.869922,125.497266 C120.210742,126.212695 122.845703,126.789648 125.768945,127.233594 C129.130469,127.766016 131.942773,127.632813 134.206055,126.833984 C136.469336,126.035156 138.277734,124.809375 139.65332,123.161914 C141.023438,121.514453 142.066211,119.533984 142.776367,117.21543 C143.486328,114.902344 143.974414,112.494727 144.24082,110.004102 C144.507227,107.513477 144.590234,105.033984 144.507031,102.587695 C144.412695,100.141406 144.329492,97.9392578 144.24082,95.98125 C144.057617,94.4667969 143.613867,91.6210938 142.903906,89.3025391 C142.199414,86.9890625 140.757227,84.6982422 138.588281,82.4238281 C136.419336,80.1550781 133.257617,78.0859375 129.091602,76.2167969 C124.931445,74.3472656 119.350977,73.0992188 112.356055,72.4779297 C107.308203,72.0287109 99.2318359,72.0287109 94.2726562,72.4779297 L94.2726562,65.9324219 C101.090039,65.4 111.230078,64.7507813 118.530078,63.9964844 C125.835547,63.2367188 133.385156,62.2380859 141.178711,60.9900391 C140.734961,60.1857422 140.335547,59.2980469 139.980664,58.321875 C139.594293,57.4371617 139.218873,56.5477057 138.854492,55.6537109 C138.435766,54.6255364 138.012324,53.5992887 137.58418,52.575 C136.613477,50.1732422 135.459766,47.371875 134.133984,44.1601563 Z" id="形状"></path>
        </g>
    </g>
</svg>
