<svg width="24" height="24" viewBox="0 0 24 24" fill="none" xmlns="http://www.w3.org/2000/svg">
<path d="M18.14 7.17C18.046 7.063 17.912 7.002 17.77 7H14V5.59C14 5.31 14.06 4.99 14.51 4.99H17.51C17.643 4.996 17.772 4.941 17.86 4.84C17.948 4.749 17.998 4.627 18 4.5V0.5C18 0.224 17.776 0 17.5 0H13.17C8.37 0 8 4.1 8 5.35V7H5.5C5.224 7 5 7.224 5 7.5V11.5C5 11.776 5.224 12 5.5 12H8V23.5C8 23.776 8.224 24 8.5 24H13.5C13.776 24 14 23.776 14 23.5V12H17.35C17.608 12.001 17.824 11.806 17.85 11.55L18.27 7.55C18.282 7.411 18.235 7.273 18.14 7.17Z" fill="#9574CD"/>
</svg>
