<svg width="24" height="24" viewBox="0 0 24 24" fill="none" xmlns="http://www.w3.org/2000/svg">
<path d="M23.32 6.44C23.532 6.263 23.561 5.948 23.385 5.736C23.317 5.654 23.224 5.596 23.12 5.57L22.33 5.37C22.062 5.303 21.899 5.031 21.966 4.764C21.974 4.731 21.986 4.7 22 4.67L22.44 3.78C22.56 3.531 22.455 3.232 22.207 3.112C22.099 3.06 21.976 3.049 21.86 3.08L19.86 3.64C19.709 3.684 19.546 3.654 19.42 3.56C18.555 2.911 17.502 2.56 16.42 2.56C13.659 2.56 11.42 4.799 11.42 7.56V7.92C11.421 8.047 11.326 8.155 11.2 8.17C8.39001 8.5 5.70001 7.07 2.80001 3.73C2.67201 3.588 2.47501 3.53 2.29001 3.58C2.12401 3.656 2.01301 3.817 2.00001 4C1.59901 5.645 1.76101 7.377 2.46001 8.92C2.52201 9.043 2.47301 9.194 2.35001 9.256C2.30301 9.279 2.25101 9.288 2.20001 9.28L1.08001 9.06C0.807006 9.016 0.551006 9.202 0.507006 9.474C0.498006 9.533 0.499006 9.592 0.510006 9.65C0.685006 11.205 1.55701 12.595 2.88001 13.43C3.00401 13.49 3.05601 13.64 2.99601 13.764C2.97101 13.815 2.93101 13.856 2.88001 13.88L2.35001 14.09C2.09401 14.193 1.96901 14.484 2.07201 14.74C2.07701 14.754 2.08301 14.767 2.09001 14.78C2.68501 16.082 3.88101 17.009 5.29001 17.26C5.42001 17.307 5.48701 17.451 5.44001 17.58C5.41501 17.65 5.36001 17.704 5.29001 17.73C3.93001 18.292 2.47101 18.575 1.00001 18.56C0.724006 18.505 0.455006 18.684 0.400006 18.96C0.345006 19.236 0.524006 19.505 0.800006 19.56C3.34801 20.768 6.12101 21.426 8.94001 21.49C11.419 21.528 13.855 20.832 15.94 19.49C19.424 17.164 21.511 13.249 21.5 9.06V8.19C21.501 8.043 21.567 7.904 21.68 7.81L23.32 6.44Z" fill="#9574CD"/>
</svg>
